<?xml version="1.0" encoding="utf-8"?>
<!-- Generator: Adobe Illustrator 23.0.3, SVG Export Plug-In . SVG Version: 6.00 Build 0)  -->
<svg version="1.1" xmlns="http://www.w3.org/2000/svg" xmlns:xlink="http://www.w3.org/1999/xlink" x="0px" y="0px"
	 viewBox="0 0 400 400" style="enable-background:new 0 0 400 400;" xml:space="preserve">
<style type="text/css">
	.st0{display:none;}
	.st1{display:inline;fill:#FFFFFF;stroke:#000000;stroke-miterlimit:10;}
	.st2{display:inline;fill:none;stroke:#000000;stroke-miterlimit:10;}
	.st3{display:inline;}
	.st4{fill:none;}
	.st5{fill:#2C2C2C;}
	.st6{fill:#FFFFFF;}
</style>
<g id="Base" class="st0">
	<polygon class="st1" points="138.33,100.06 209.04,30.77 279.75,100.06 349.04,170.77 279.75,241.48 209.04,310.77 138.33,241.48 
		69.04,170.77 	"/>
	<polygon class="st1" points="163.58,125.31 209.04,80.77 254.5,125.31 299.04,170.77 254.5,216.23 209.04,260.77 163.58,216.23 
		119.04,170.77 	"/>
	<polygon class="st1" points="178.73,140.46 209.04,110.77 239.34,140.46 269.04,170.77 239.34,201.07 209.04,230.77 178.73,201.07 
		149.04,170.77 	"/>
	<line class="st2" x1="69.04" y1="170.77" x2="349.04" y2="170.77"/>
</g>
<g id="Partición" class="st0">
	<g class="st3">
		<polygon points="180.41,22.29 203.4,57.21 208.08,50.01 180.41,7.43 71.76,174.58 80.13,174.58 		"/>
		<polygon points="180.41,56.13 192.56,73.9 196.31,68.13 180.41,44.57 92.67,174.58 99.43,174.58 		"/>
		<polygon points="235.76,22.29 336.04,174.58 344.41,174.58 235.76,7.43 208.08,50.01 212.77,57.21 		"/>
		<polygon points="208.08,64.32 212.77,57.21 208.08,50.01 203.4,57.21 		"/>
		<polygon points="201,75.09 208.08,64.32 203.4,57.21 196.31,68.13 		"/>
		<polygon points="197.25,80.77 201,75.09 196.31,68.13 192.56,73.9 		"/>
		<polygon points="192.56,73.9 127.12,174.58 135.48,174.58 197.25,80.77 		"/>
		<polygon points="316.74,174.58 323.5,174.58 235.76,44.57 219.86,68.13 289.05,174.58 		"/>
		<polygon points="280.69,174.58 289.05,174.58 219.86,68.13 215.17,75.09 		"/>
		<polygon points="280.69,174.58 215.17,75.09 208.08,85.59 268.14,174.58 		"/>
		<polygon points="261.39,174.58 268.14,174.58 208.08,85.59 204.34,91.14 		"/>
		<polygon points="204.34,91.14 148.03,174.58 154.78,174.58 261.39,174.58 		"/>
		<polygon points="344.41,174.58 336.04,174.58 235.76,326.88 212.77,291.95 208.08,299.15 235.76,341.74 		"/>
		<polygon points="235.76,293.04 223.61,275.26 219.86,281.03 235.76,304.59 323.5,174.58 316.74,174.58 		"/>
		<polygon points="180.41,326.88 80.13,174.58 71.76,174.58 180.41,341.74 208.08,299.15 203.4,291.95 		"/>
		<polygon points="208.08,284.84 203.4,291.95 208.08,299.15 212.77,291.95 		"/>
		<polygon points="215.17,274.08 208.08,284.84 212.77,291.95 219.86,281.03 		"/>
		<polygon points="218.92,268.39 215.17,274.08 219.86,281.03 223.61,275.26 		"/>
		<polygon points="223.61,275.26 289.05,174.58 280.69,174.58 218.92,268.39 		"/>
		<polygon points="99.43,174.58 92.67,174.58 180.41,304.59 196.31,281.03 127.12,174.58 		"/>
		<polygon points="127.12,174.58 196.31,281.03 201,274.08 135.48,174.58 		"/>
		<polygon points="135.48,174.58 201,274.08 208.08,263.58 148.03,174.58 		"/>
		<polygon points="154.78,174.58 148.03,174.58 208.08,263.58 211.83,258.03 		"/>
		<polygon points="261.39,174.58 154.78,174.58 211.83,258.03 268.14,174.58 		"/>
	</g>
</g>
<g id="Unknown" class="st0">
	<g class="st3">
		<path class="st4" d="M214.72,209.19c-0.62-0.64-1.53-1.05-2.55-1.05c-1.02,0-1.94,0.41-2.55,1.05l-0.47,0.65
			c-0.21,0.39-0.33,0.83-0.33,1.3c0,1.65,1.5,2.99,3.36,2.99c1.86,0,3.36-1.34,3.36-2.99c0-0.46-0.12-0.9-0.33-1.3L214.72,209.19z"
			/>
		<path class="st4" d="M216.06,312.25L299.05,200L211.03,80.95l0.02-0.03l-9.52-12.88l-0.02,0.03l-9.52,12.88l-5.03,6.8L103.97,200
			l13.73,18.57h0.09l83.77,113.3l9.48-12.82L216.06,312.25z M201.51,306.48L120.82,200l75.66-99.84l5.03-6.64L282.2,200
			l-75.66,99.84L201.51,306.48z"/>
		<polygon class="st4" points="55.53,200 164.33,341.73 180.65,320.46 92.73,200 180.65,79.54 164.33,58.27 		"/>
		<path class="st4" d="M247.47,200c-1.28-21.46-21.22-38.51-45.64-38.51h-0.63c-24.42,0-44.36,17.05-45.64,38.51
			c-0.04,0.73-0.07,1.46-0.07,2.2v0c0,22.48,20.46,40.71,45.71,40.71h0.63c25.24,0,45.71-18.23,45.71-40.71v0
			C247.54,201.46,247.51,200.73,247.47,200z M222.39,202.2c0,10.27-9.35,18.59-20.88,18.59c-11.53,0-20.88-8.32-20.88-18.59v0
			c0-2.89,0.76-5.61,2.08-8.05l2.93-4.01c3.83-3.99,9.51-6.53,15.87-6.53h0c6.36,0,12.04,2.54,15.87,6.53l2.93,4.01
			C221.63,196.58,222.39,199.31,222.39,202.2L222.39,202.2z"/>
		<polygon class="st4" points="222.37,320.46 238.7,341.73 347.5,200 347.5,200 238.7,58.27 222.37,79.54 310.29,200 		"/>
		<polygon class="st4" points="238.7,17.78 207.8,59.57 207.75,59.63 211.99,65.44 217.29,72.7 217.34,72.63 238.7,44.44 
			356.57,200 238.7,355.56 217.34,327.37 207.8,340.43 238.7,382.22 373.43,200 		"/>
		<polygon class="st4" points="185.82,327.18 185.69,327.37 164.33,355.56 46.45,200 164.33,44.44 185.69,72.63 195.22,59.57 
			164.33,17.78 29.6,200 164.33,382.22 195.22,340.43 195.36,340.25 194.47,339.03 		"/>
		<path class="st5" d="M238.7,0l-37.19,50.95L164.33,0L18.36,200l145.96,200l18.39-25.2c0.79-1.45,1.76-2.8,2.93-4.01l15.87-21.74
			l15.87,21.74c1.16,1.21,2.14,2.56,2.93,4.01L238.7,400l145.96-200L238.7,0z M195.22,340.43l-30.9,41.79L29.6,200L164.33,17.78
			l30.9,41.79l-9.54,13.07l-21.36-28.19L46.45,200l117.87,155.56l21.36-28.19l0.14-0.18l8.64,11.84l0.89,1.22L195.22,340.43z
			 M180.65,79.54L92.73,200l87.92,120.46l-16.32,21.26L55.53,200l108.8-141.73L180.65,79.54z M117.79,218.57h-0.09L103.97,200
			l82.99-112.25l5.03-6.8l9.52-12.88l0.02-0.03l9.52,12.88l-0.02,0.03L299.05,200l-82.99,112.25l-5.03,6.8l-9.48,12.82
			L117.79,218.57z M222.37,79.54l16.32-21.26L347.5,200h0L238.7,341.73l-16.32-21.26L310.29,200L222.37,79.54z M207.8,340.43
			l9.54-13.07l21.36,28.19L356.57,200L238.7,44.44l-21.36,28.19l-0.05,0.06l-5.29-7.26l-4.24-5.81l0.05-0.06l30.9-41.79L373.43,200
			L238.7,382.22L207.8,340.43z"/>
		<path class="st5" d="M201.51,93.52l-5.03,6.64L120.82,200l80.69,106.48l5.03-6.64L282.2,200L201.51,93.52z M201.83,242.9h-0.63
			c-25.24,0-45.71-18.23-45.71-40.71v0c0-0.74,0.02-1.47,0.07-2.2c1.28-21.46,21.22-38.51,45.64-38.51h0.63
			c24.42,0,44.36,17.05,45.64,38.51c0.04,0.73,0.07,1.46,0.07,2.2v0C247.54,224.68,227.07,242.9,201.83,242.9z"/>
		<path class="st5" d="M217.38,190.13c-3.83-3.99-9.51-6.53-15.87-6.53h0c-6.36,0-12.04,2.54-15.87,6.53l-2.93,4.01
			c-1.32,2.44-2.08,5.16-2.08,8.05v0c0,10.27,9.35,18.59,20.88,18.59c11.53,0,20.88-8.32,20.88-18.59v0c0-2.89-0.76-5.61-2.08-8.05
			L217.38,190.13z M212.16,214.12c-1.85,0-3.36-1.34-3.36-2.99c0-0.46,0.12-0.9,0.33-1.3l0.47-0.65c0.62-0.64,1.53-1.05,2.55-1.05
			c1.02,0,1.94,0.41,2.55,1.05l0.47,0.65c0.21,0.39,0.33,0.83,0.33,1.3C215.52,212.78,214.02,214.12,212.16,214.12z"/>
		<path d="M185.64,370.79c-1.16,1.21-2.14,2.56-2.93,4.01L185.64,370.79z"/>
		<path d="M220.31,374.8c-0.79-1.45-1.76-2.8-2.93-4.01L220.31,374.8z"/>
	</g>
</g>
<g id="Unknown_Reverse" class="st0">
	<g class="st3">
		<rect class="st5" width="400" height="400"/>
		<path class="st4" d="M209.83,192.39c-0.46-0.54-1.14-0.88-1.9-0.88c-0.76,0-1.44,0.34-1.9,0.88l-0.35,0.54
			c-0.16,0.33-0.25,0.69-0.25,1.08c0,1.38,1.12,2.5,2.5,2.5c1.38,0,2.5-1.12,2.5-2.5c0-0.39-0.09-0.75-0.25-1.08L209.83,192.39z"/>
		<path class="st4" d="M210.83,278.53l61.77-93.81l-65.52-99.5l0.02-0.02l-7.09-10.76L200,74.45l-7.09,10.76l-3.74,5.69
			l-61.77,93.81l10.22,15.52h0.07l62.35,94.69l7.05-10.71L210.83,278.53z M200,273.71l-60.06-88.99l56.31-83.45l3.74-5.55
			l60.06,88.99l-56.31,83.45L200,273.71z"/>
		<polygon class="st4" points="91.34,184.71 172.32,303.17 184.47,285.39 119.03,184.71 184.47,84.03 172.32,66.26 		"/>
		<path class="st4" d="M234.21,184.71c-0.95-17.94-15.8-32.19-33.97-32.19h-0.47c-18.17,0-33.02,14.25-33.97,32.19
			c-0.03,0.61-0.05,1.22-0.05,1.83v0c0,18.79,15.23,34.02,34.02,34.02h0.47c18.79,0,34.02-15.23,34.02-34.02v0
			C234.26,185.93,234.24,185.32,234.21,184.71z M215.54,186.55c0,8.58-6.96,15.54-15.54,15.54s-15.54-6.96-15.54-15.54v0
			c0-2.41,0.57-4.69,1.55-6.73l2.18-3.35c2.85-3.34,7.08-5.46,11.81-5.46h0c4.73,0,8.96,2.12,11.81,5.46l2.18,3.35
			C214.97,181.86,215.54,184.13,215.54,186.55L215.54,186.55z"/>
		<polygon class="st4" points="215.53,285.39 227.68,303.17 308.66,184.71 308.66,184.71 227.68,66.26 215.53,84.03 280.97,184.71 
					"/>
		<polygon class="st4" points="227.68,32.42 204.68,67.35 204.65,67.4 207.8,72.25 211.74,78.32 211.78,78.27 227.68,54.71 
			315.41,184.71 227.68,314.72 211.78,291.16 204.68,302.08 227.68,337.01 327.96,184.71 		"/>
		<polygon class="st4" points="188.32,291.01 188.22,291.16 172.32,314.72 84.59,184.71 172.32,54.71 188.22,78.27 195.32,67.35 
			172.32,32.42 72.04,184.71 172.32,337.01 195.32,302.08 195.42,301.93 194.76,300.91 		"/>
		<path class="st6" d="M227.68,17.56L200,60.14l-27.68-42.58L63.68,184.71l108.64,167.15l13.69-21.06c0.58-1.21,1.31-2.34,2.18-3.35
			L200,309.28l11.81,18.17c0.87,1.01,1.59,2.14,2.18,3.35l13.69,21.06l108.64-167.15L227.68,17.56z M195.32,302.08l-23,34.93
			L72.04,184.71l100.28-152.3l23,34.93l-7.1,10.92l-15.9-23.56L84.59,184.71l87.74,130.01l15.9-23.56l0.1-0.15l6.43,9.9l0.66,1.02
			L195.32,302.08z M184.47,84.03l-65.44,100.68l65.44,100.68l-12.15,17.77L91.34,184.71l80.98-118.45L184.47,84.03z M137.68,200.23
			h-0.07l-10.22-15.52l61.77-93.81l3.74-5.69L200,74.45l0.02-0.02l7.09,10.76l-0.02,0.02l65.52,99.5l-61.77,93.81l-3.74,5.69
			l-7.05,10.71L137.68,200.23z M215.53,84.03l12.15-17.77l80.98,118.45h0l-80.98,118.45l-12.15-17.77l65.44-100.68L215.53,84.03z
			 M204.68,302.08l7.1-10.92l15.9,23.56l87.74-130.01L227.68,54.71l-15.9,23.56l-0.04,0.05l-3.94-6.06l-3.16-4.86l0.03-0.05
			l23-34.93l100.28,152.3l-100.28,152.3L204.68,302.08z"/>
		<path class="st6" d="M200,95.72l-3.74,5.55l-56.31,83.45L200,273.71l3.74-5.55l56.31-83.45L200,95.72z M200.23,220.57h-0.47
			c-18.79,0-34.02-15.23-34.02-34.02v0c0-0.62,0.02-1.23,0.05-1.83c0.95-17.94,15.8-32.19,33.97-32.19h0.47
			c18.17,0,33.02,14.25,33.97,32.19c0.03,0.61,0.05,1.22,0.05,1.83v0C234.26,205.34,219.02,220.57,200.23,220.57z"/>
		<path class="st6" d="M211.81,176.47c-2.85-3.34-7.08-5.46-11.81-5.46h0c-4.73,0-8.96,2.12-11.81,5.46l-2.18,3.35
			c-0.98,2.04-1.55,4.32-1.55,6.73v0c0,8.58,6.96,15.54,15.54,15.54s15.54-6.96,15.54-15.54v0c0-2.41-0.57-4.69-1.55-6.73
			L211.81,176.47z M207.93,196.52c-1.38,0-2.5-1.12-2.5-2.5c0-0.39,0.09-0.75,0.25-1.08l0.35-0.54c0.46-0.54,1.14-0.88,1.9-0.88
			c0.76,0,1.44,0.34,1.9,0.88l0.35,0.54c0.16,0.33,0.25,0.69,0.25,1.08C210.43,195.4,209.31,196.52,207.93,196.52z"/>
		<path class="st6" d="M188.19,327.46c-0.87,1.01-1.59,2.14-2.18,3.35L188.19,327.46z"/>
		<path class="st6" d="M213.99,330.81c-0.58-1.21-1.31-2.34-2.18-3.35L213.99,330.81z"/>
	</g>
</g>
<g id="Unknwon_Color" class="st0">
	<g class="st3">
		<path class="st5" d="M212.48,209.14c-0.58-0.64-1.45-1.05-2.41-1.05c-0.97,0-1.83,0.41-2.41,1.05l-0.45,0.65
			c-0.2,0.39-0.32,0.83-0.32,1.3c0,1.65,1.42,2.99,3.17,2.99c1.75,0,3.17-1.34,3.17-2.99c0-0.46-0.12-0.9-0.32-1.3L212.48,209.14z"
			/>
		<path class="st5" d="M213.76,312.2l78.44-112.25L209,80.91l0.02-0.03l-9-12.88L200,68.03l-9,12.88l-4.75,6.8L107.8,199.95
			l12.97,18.57h0.09l79.18,113.3L209,319L213.76,312.2z M200,306.44l-76.27-106.48l71.51-99.84l4.76-6.64l76.27,106.48l-71.51,99.84
			L200,306.44z"/>
		<polygon class="st5" points="62.01,199.95 164.85,341.68 180.28,320.42 97.18,199.95 180.28,79.49 164.85,58.23 		"/>
		<path class="st5" d="M243.44,199.95c-1.21-21.46-20.06-38.51-43.14-38.51h-0.6c-23.08,0-41.93,17.05-43.14,38.51
			c-0.04,0.73-0.06,1.46-0.06,2.2v0c0,22.48,19.34,40.71,43.2,40.71h0.6c23.86,0,43.2-18.23,43.2-40.71v0
			C243.5,201.41,243.48,200.68,243.44,199.95z M219.73,202.15c0,10.27-8.83,18.59-19.73,18.59s-19.73-8.32-19.73-18.59v0
			c0-2.89,0.72-5.61,1.97-8.05l2.77-4.01c3.62-3.99,8.99-6.53,15-6.53h0c6.01,0,11.38,2.54,15,6.53l2.77,4.01
			C219.01,196.54,219.73,199.26,219.73,202.15L219.73,202.15z"/>
		<polygon class="st5" points="219.72,320.42 235.15,341.68 337.99,199.95 337.99,199.95 235.15,58.23 219.72,79.49 302.82,199.95 
					"/>
		<polygon class="st5" points="205.94,59.52 205.9,59.58 209.91,65.4 214.91,72.65 214.96,72.59 235.15,44.4 346.56,199.95 
			235.15,355.51 214.96,327.32 205.94,340.39 235.15,382.18 362.49,199.95 235.15,17.73 		"/>
		<polygon class="st5" points="185.17,327.14 185.04,327.32 164.85,355.51 53.44,199.95 164.85,44.4 185.04,72.59 194.06,59.52 
			164.85,17.73 37.51,199.95 164.85,382.18 194.06,340.39 194.18,340.2 193.34,338.98 		"/>
		<path class="st6" d="M200,50.91L164.85-0.05l-137.97,200l137.97,200l17.38-25.2c0.74-1.45,1.67-2.8,2.77-4.01L200,349l15,21.74
			c1.1,1.21,2.02,2.56,2.77,4.01l17.38,25.2l137.97-200l-137.97-200L200,50.91z M194.06,340.39l-29.2,41.79L37.51,199.95
			L164.85,17.73l29.2,41.79l-9.01,13.07L164.85,44.4L53.44,199.95l111.41,155.56l20.19-28.19l0.13-0.18l8.17,11.84l0.84,1.22
			L194.06,340.39z M180.28,79.49l-83.1,120.46l83.1,120.46l-15.43,21.26L62.01,199.95L164.85,58.23L180.28,79.49z M120.86,218.52
			h-0.09l-12.97-18.57l78.44-112.25l4.75-6.8l9-12.88l0.02-0.03l9,12.88L209,80.91l83.2,119.05L213.76,312.2L209,319l-8.96,12.82
			L120.86,218.52z M219.72,79.49l15.43-21.26l102.84,141.73h0L235.15,341.68l-15.43-21.26l83.1-120.46L219.72,79.49z M235.15,382.18
			l-29.2-41.79l9.01-13.07l20.19,28.19l111.41-155.56L235.15,44.4l-20.19,28.19l-0.04,0.06l-5-7.26l-4.01-5.81l0.04-0.06l29.2-41.79
			l127.35,182.22L235.15,382.18z"/>
		<path class="st6" d="M200,93.47l-4.76,6.64l-71.51,99.84L200,306.44l4.76-6.64l71.51-99.84L200,93.47z M200.3,242.86h-0.6
			c-23.86,0-43.2-18.23-43.2-40.71v0c0-0.74,0.02-1.47,0.06-2.2c1.21-21.46,20.06-38.51,43.14-38.51h0.6
			c23.08,0,41.93,17.05,43.14,38.51c0.04,0.73,0.06,1.46,0.06,2.2v0C243.5,224.63,224.16,242.86,200.3,242.86z"/>
		<path class="st6" d="M215,190.09c-3.62-3.99-8.99-6.53-15-6.53h0c-6.01,0-11.38,2.54-15,6.53l-2.77,4.01
			c-1.25,2.44-1.97,5.16-1.97,8.05v0c0,10.27,8.83,18.59,19.73,18.59s19.73-8.32,19.73-18.59v0c0-2.89-0.72-5.61-1.97-8.05
			L215,190.09z M210.07,214.08c-1.75,0-3.17-1.34-3.17-2.99c0-0.46,0.12-0.9,0.32-1.3l0.45-0.65c0.58-0.64,1.45-1.05,2.41-1.05
			c0.97,0,1.83,0.41,2.41,1.05l0.45,0.65c0.2,0.39,0.32,0.83,0.32,1.3C213.24,212.74,211.82,214.08,210.07,214.08z"/>
		<path class="st6" d="M185,370.75c-1.1,1.21-2.02,2.56-2.77,4.01L185,370.75z"/>
		<path class="st6" d="M217.77,374.76c-0.74-1.45-1.67-2.8-2.77-4.01L217.77,374.76z"/>
	</g>
</g>
<g id="Capa_6">
	<g>
		<path class="st4" d="M220.18,190.13c-3.62-3.99-8.99-6.53-15-6.53h0c-6.01,0-11.38,2.54-15,6.53l-2.77,4.01
			c-1.25,2.44-1.97,5.16-1.97,8.05v0c0,10.27,8.83,18.59,19.73,18.59s19.73-8.32,19.73-18.59v0c0-2.89-0.72-5.61-1.97-8.05
			L220.18,190.13z M215.25,214.12c-1.75,0-3.17-1.34-3.17-2.99c0-0.46,0.12-0.9,0.32-1.3l0.45-0.65c0.58-0.64,1.45-1.05,2.41-1.05
			c0.97,0,1.83,0.41,2.41,1.05l0.45,0.65c0.2,0.39,0.32,0.83,0.32,1.3C218.43,212.78,217.01,214.12,215.25,214.12z"/>
		<polygon class="st5" points="224.9,320.46 240.33,341.73 343.17,200 343.17,200 240.33,58.27 224.9,79.54 308,200 		"/>
		<polygon class="st5" points="67.2,200 170.04,341.73 185.47,320.46 102.37,200 185.47,79.54 170.04,58.27 		"/>
		<polygon class="st5" points="190.36,327.18 190.23,327.37 170.04,355.56 58.62,200 170.04,44.44 190.23,72.63 199.24,59.57 
			170.04,17.78 42.69,200 170.04,382.22 199.24,340.43 199.37,340.25 198.53,339.03 		"/>
		<path class="st5" d="M217.67,209.19c-0.58-0.64-1.45-1.05-2.41-1.05c-0.97,0-1.83,0.41-2.41,1.05l-0.45,0.65
			c-0.2,0.39-0.32,0.83-0.32,1.3c0,1.65,1.42,2.99,3.17,2.99c1.75,0,3.17-1.34,3.17-2.99c0-0.46-0.12-0.9-0.32-1.3L217.67,209.19z"
			/>
		<path class="st5" d="M218.94,312.25L297.38,200l-83.2-119.05l0.02-0.03l-9-12.88l-0.02,0.03l-9,12.88l-4.75,6.8L112.99,200
			l12.97,18.57h0.09l79.18,113.3l8.96-12.82L218.94,312.25z M205.18,306.48L128.92,200l71.51-99.84l4.76-6.64L281.45,200
			l-71.51,99.84L205.18,306.48z"/>
		<path class="st5" d="M248.62,200c-1.21-21.46-20.06-38.51-43.14-38.51h-0.6c-23.08,0-41.93,17.05-43.14,38.51
			c-0.04,0.73-0.06,1.46-0.06,2.2v0c0,22.48,19.34,40.71,43.2,40.71h0.6c23.86,0,43.2-18.23,43.2-40.71v0
			C248.69,201.46,248.66,200.73,248.62,200z M224.92,202.2c0,10.27-8.83,18.59-19.73,18.59s-19.73-8.32-19.73-18.59v0
			c0-2.89,0.72-5.61,1.97-8.05l2.77-4.01c3.62-3.99,8.99-6.53,15-6.53h0c6.01,0,11.38,2.54,15,6.53l2.77,4.01
			C224.2,196.58,224.92,199.31,224.92,202.2L224.92,202.2z"/>
		<polygon class="st5" points="240.33,17.78 211.13,59.57 211.08,59.63 215.09,65.44 220.1,72.7 220.14,72.63 240.33,44.44 
			351.75,200 240.33,355.56 220.14,327.37 211.13,340.43 240.33,382.22 367.68,200 		"/>
	</g>
</g>
</svg>
